<?xml version="1.0" encoding="UTF-8"?>
<svg id="Layer_1" data-name="Layer 1" xmlns="http://www.w3.org/2000/svg" viewBox="0 0 326 429.89">
  <defs>
    <style>
      .cls-1 {
        fill: #fff;
      }

      .cls-2 {
        fill: none;
      }
    </style>
  </defs>
  <g>
    <path class="cls-1" d="m42.81,17.91c6.45-3.76,14.15-4.57,21.49-4.48,5.82-.09,10.84,3.4,14.87,7.25,2.87,3.05,5.64,6.09,7.52,9.85,5.82,9.22,11.11,18.9,15.58,28.84,2.6,6.36,5.28,12.72,7.25,19.26,2.69,8.06,4.93,16.3,7.7,24.27,1.07,2.87,1.52,5.91,2.33,8.87.99,3.76,2.6,7.34,3.58,11.11,1.52,6,3.67,11.82,5.02,17.91,1.16,6.09,2.06,12.27,2.69,18.36.36,7.7.36,15.4,1.52,23.02.63,3.85.36,7.88,1.34,11.73.72,2.51.18,5.19,1.07,7.7,2.51-.81,5.1-1.79,7.79-1.43,4.75.54,9.31-1.07,14.06-1.25,4.48-.63,8.96-.18,13.43,0,5.64.54,11.02,2.06,16.48,3.31.9-3.67,1.16-7.43,2.06-11.11.99-4.03.54-8.24,1.34-12.27s.9-8.33,1.34-12.45c1.07-7.25,2.24-14.42,3.31-21.58,1.07-4.12,1.34-8.33,2.6-12.45,1.43-9.14,3.49-18.09,5.73-27.05,4.3-12.81,6.54-26.24,11.11-38.96,1.16-3.05,2.24-6.09,3.31-9.14,1.07-3.05,2.78-5.73,4.3-8.6,1.79-3.13,3.4-6.27,5.64-9.05,2.24-2.96,5.02-5.46,7.52-8.15,3.67-3.49,7.52-7.08,12.36-8.87,6.99-2.96,14.6-5.28,22.21-3.67,4.66,1.16,9.05,3.13,12.9,6,6.54,4.75,10.48,12,13.25,19.43,2.15,6.63,3.85,13.43,5.28,20.24.81,4.03.72,8.15,1.07,12.27.54,4.75.18,9.58.54,14.33-.09,4.84.09,9.76-.36,14.6-.63,7.43-.27,14.96-.99,22.48-.81,9.22-1.16,18.45-2.78,27.5-.63,5.46-1.52,10.93-2.15,16.39-1.43,6-2.24,12.09-3.31,18.18-2.51,9.58-3.94,19.35-6.54,28.84-3.13,13.43-6.45,26.87-12.45,39.41-1.07,2.24-1.61,4.75-3.58,6.45-.18,1.34-.09,2.78.18,4.12-.9,5.55.27,11.11.9,16.66,1.52,8.78,3.05,17.55,3.22,26.42.54,8.87-.9,17.64-1.97,26.42-1.07,6.09-3.85,11.73-6.09,17.46-.99.9-1.43,2.24-1.34,3.49-1.43,2.42-3.05,4.84-4.84,7.08-2.06,2.69-3.4,5.91-5.46,8.6-1.34,1.97-3.31,3.4-5.02,5.1-1.88,1.79-3.4,4.03-5.64,5.46-2.96,1.88-5.73,4.12-8.24,6.54-1.16.63-2.24,1.34-3.31,2.15-3.4,1.25-6.09,3.85-9.4,5.28-3.22,1.79-6.72,2.78-9.85,4.75-5.28,2.42-11.02,3.31-16.48,5.02-6.54,1.07-12.9,3.05-19.52,3.67-3.4.36-6.72,1.61-10.21,1.88-2.51.27-5.02.36-7.52.63-4.39.54-8.87.81-13.34.81-3.76-.54-7.43-1.52-11.2-1.79s-7.43-2.33-11.28-2.6c-2.87-.27-5.28-1.97-7.88-2.87-4.3-1.07-8.78-1.88-12.72-3.94-1.88-.9-4.03-.99-5.82-1.97-3.4-1.88-7.08-3.22-10.39-5.37-2.96-1.88-6.45-3.05-9.05-5.55-1.52-1.43-2.51-3.31-4.21-4.66-4.03-2.96-7.61-6.45-10.57-10.48-.99-1.25-2.33-2.15-3.31-3.31-1.34-1.52-2.42-3.31-3.76-4.75-2.15-2.33-3.4-5.28-5.1-7.88-.81-1.25-1.34-2.78-1.43-4.3-1.52-2.87-2.78-5.82-4.39-8.69-.27-.09-.81-.27-1.07-.36-2.15-3.49-3.13-7.61-4.3-11.46-1.79-6.27-2.24-12.81-2.6-19.26-.45-5.28-.09-10.48.09-15.76,1.25-9.76,3.31-19.43,7.43-28.48,2.06-4.66,3.94-9.4,6.45-13.79,3.67-6,6.99-12.18,10.03-18.54-1.25-3.13-1.97-6.45-4.03-9.22-1.79-3.58-4.84-6.18-6.54-9.76-3.05-6-5.73-12.18-8.06-18.54-3.67-10.84-6.99-21.76-9.76-32.87-1.52-6.54-2.15-13.34-3.76-19.88-.72-4.39-1.88-8.69-2.42-13.08-1.25-7.43-1.88-14.96-2.78-22.39-.81-7.52-.36-15.05-.54-22.66-.18-11.02,2.33-21.85,4.12-32.69,2.51-10.21,4.12-20.69,7.7-30.63,1.97-4.03,3.67-8.6,7.61-11.11Zm3.22,20.6c-1.97,5.1-3.85,10.39-4.48,15.85-1.43,4.66-1.61,9.49-2.42,14.24-.72,7.88-.81,15.76-1.16,23.64-.45,5.28-.54,10.48-.45,15.76-.18,5.64-.09,11.28.54,16.93.63,5.02.63,10.12,1.61,15.14,1.34,8.78,2.6,17.55,4.84,26.15,1.16,4.57,2.15,9.22,3.58,13.79,2.51,9.67,6.27,18.9,10.21,28.03,1.88,3.94,4.03,7.61,5.91,11.46,2.15,3.49,4.3,6.99,6.63,10.21.72.72,1.25,1.97,2.51,1.52,3.13-.9,5.46-3.4,8.42-4.75,1.34.9,3.76,1.43,3.49,3.49-.09,3.4-3.31,5.46-5.64,7.43-4.21,3.85-8.15,7.97-11.73,12.45-5.28,6.27-9.22,13.43-12.99,20.6-3.13,6.54-4.66,13.7-6,20.78-.81,7.25-1.25,14.6-1.16,21.94.54,5.64.81,11.37,1.88,16.93,2.06,12.27,6.99,23.91,14.42,33.94,6.72,8.24,14.6,15.58,23.29,21.67,11.73,8.33,25.79,12.81,39.94,14.51,6.72.45,13.43,1.61,20.24,1.61s13.52.63,20.24-.36c5.46-.9,11.02-.99,16.39-2.06,9.94-1.7,19.61-5.02,28.48-9.85,7.25-4.12,14.78-8.24,20.96-13.88,1.97-1.97,4.3-3.58,6.27-5.55,4.03-4.48,8.06-9.05,10.93-14.42,3.05-5.64,5.91-11.46,7.34-17.73.99-3.85,1.7-7.7,2.24-11.55.99-7.97,1.52-16.03.27-23.91-.81-6.18-1.52-12.45-3.58-18.36-2.6-9.49-7.08-18.45-13.17-26.15-1.7-2.33-4.39-4.57-4.03-7.7-.09-2.24,2.06-4.84,4.39-4.03,5.19,1.25,7.7,6.54,12.36,8.69,2.24-3.58,3.22-7.79,4.84-11.64,2.6-7.97,5.37-15.85,7.52-24,1.79-5.37,2.78-10.93,4.21-16.39,1.07-5.19,2.69-10.3,3.49-15.58,1.34-7.61,2.96-15.05,4.39-22.66.45-3.05.9-6.18,1.52-9.22.9-7.43,2.42-14.78,2.78-22.21.09-2.87.81-5.55.99-8.42.18-6.9.45-13.88.72-20.87.09-6.54.72-13.08.36-19.61.27-4.12.09-8.33-.45-12.45-.36-6.63-1.43-13.17-3.31-19.52-1.61-5.55-4.48-10.93-9.05-14.69-3.22-2.69-6.9-5.28-11.2-5.46-2.69-.09-5.46-.36-7.88.9-7.25,3.58-12.27,10.3-15.85,17.37-2.33,4.3-4.48,8.78-6.27,13.34-8.6,20.33-15.14,41.47-19.7,63.05-.36,2.69-.9,5.28-1.61,7.88-2.6,11.82-4.57,23.64-6.54,35.56-1.07,8.42-2.87,16.84-3.31,25.35-.09,5.19-.63,10.57-2.96,15.31-.72,1.43-1.79,3.05-3.58,3.13-3.05.18-6-.72-8.96-1.34-11.46-2.24-23.2-2.78-34.84-2.69-8.96-.54-17.46,2.87-26.33,2.78-1.7.18-3.4-.81-4.03-2.51-1.97-6.99-2.15-14.24-2.96-21.4-.72-8.06-.63-16.21-1.88-24.18-.9-6.9-1.79-13.79-3.67-20.51-2.06-8.78-5.02-17.37-7.7-26.06-2.96-8.33-4.84-17.02-7.16-25.61-2.6-6.81-3.94-13.97-6.54-20.78-3.67-10.48-7.61-20.87-12.9-30.72-1.97-3.67-4.57-6.9-7.61-9.76-3.94-3.58-9.31-5.1-14.51-4.3-5.28,1.79-8.51,6.72-10.57,11.46h0Z"/>
    <path class="cls-1" d="m216.65,282.29c1.16-1.07,3.13-.45,3.85.81.9,2.06.45,4.3.54,6.45-.09.72.27,1.34.99,1.61,2.33.63,4.84,0,7.16.63,1.43.54,1.43,2.42,1.88,3.67-2.15,1.79-5.02,1.16-7.52,1.25-.9,0-1.34.99-1.61,1.61-1.43,4.03-.81,8.42-1.52,12.63-.63,1.97-3.22,1.43-4.12.09-1.7-2.6-2.15-5.82-2.06-8.87-.09-1.97.36-4.03-.54-5.91-2.69-.45-5.46.45-8.06-.45-2.15-.99-1.88-4.21.18-5.1,2.42-.81,5.02-.27,7.43,0,.99-2.87.81-6.45,3.4-8.42Z"/>
    <path class="cls-1" d="m90.28,288.65c1.25-2.51,5.37-1.88,6.27.63.27,2.06.27,4.12.18,6.18,2.33.54,4.75.18,7.16.36,1.97.09,3.13,2.24,2.96,4.03-.9,2.33-3.76,1.97-5.73,1.88-1.34.09-3.22-.54-3.94.99-1.7,4.21-.54,8.87-1.52,13.17-1.43,2.15-4.12.63-4.75-1.34-1.61-4.12,0-8.78-1.61-12.9-1.79-2.69-5.55-.36-7.97-1.79-1.61-1.07-.18-2.96.45-4.21,2.6-.18,5.1-.27,7.7-.18.45-2.24.36-4.57.81-6.81Z"/>
    <path class="cls-1" d="m153.42,321.52c4.48-.27,9.05-.63,13.34.81,3.67.99,7.16,2.69,10.12,5.1,1.79,1.61,3.4,3.76,3.58,6.27.09,2.51-2.51,4.12-4.75,4.39-8.06,1.07-16.21.09-24.27.18-4.66-.09-9.4.27-14.06-.18-1.52-.09-2.06-1.88-1.79-3.13.72-4.03,3.49-7.34,6.9-9.49s7.08-3.49,10.93-3.94Z"/>
  </g>
  <rect class="cls-2" width="326" height="429.89"/>
</svg>